<svg xmlns="http://www.w3.org/2000/svg" width="161" height="17" viewBox="0 0 161 17">
  <path fill="#FFF" fill-rule="evenodd" d="M24.4537591,30.8218986 L17,30.8218986 L17,14.2856377 L24.4537591,14.2856377 L24.4537591,16.943655 L20.0765136,16.943655 L20.0765136,20.8797828 L24.1370592,20.8797828 L24.1370592,23.5491108 L20.0765136,23.5491108 L20.0765136,28.1299491 L24.4537591,28.1299491 L24.4537591,30.8218986 Z M117.664235,30.7737858 L114.599032,30.7737858 L114.599032,16.9407851 L111.432032,16.9407851 L111.432032,14.237525 L120.831234,14.237525 L120.831234,16.9407851 L117.664235,16.9407851 L117.664235,30.7737858 Z M33.9773786,14.2856377 L37.0765136,14.2856377 L33.1856287,30.8218986 L29.2721224,30.8218986 L25.4038589,14.2856377 L28.502994,14.2856377 L30.66334,24.3861035 C30.8593933,25.2457219 31.0516735,26.4785772 31.2401863,28.0847063 C31.3985371,26.7198735 31.5983576,25.4870183 31.839654,24.3861035 L33.9773786,14.2856377 Z M132.809278,30.7737858 L129.732764,30.7737858 L129.732764,23.5236194 L125.672219,23.5236194 L125.672219,30.7737858 L122.595705,30.7737858 L122.595705,14.237525 L125.672219,14.237525 L125.672219,20.8090486 L129.732764,20.8090486 L129.732764,14.237525 L132.809278,14.237525 L132.809278,30.7737858 Z M45.9893546,30.8218986 L38.5355955,30.8218986 L38.5355955,14.2856377 L45.9893546,14.2856377 L45.9893546,16.943655 L41.6121091,16.943655 L41.6121091,20.8797828 L45.6726547,20.8797828 L45.6726547,23.5491108 L41.6121091,23.5491108 L41.6121091,28.1299491 L45.9893546,28.1299491 L45.9893546,30.8218986 Z M136.281666,30.7737858 L136.281666,14.237525 L139.177209,14.237525 L139.177209,30.7737858 L136.281666,30.7737858 Z M51.4750499,24.3861035 L51.4750499,30.8218986 L48.3985363,30.8218986 L48.3985363,14.2856377 L52.4251497,14.2856377 C54.1293055,14.2856377 55.386667,14.6890491 56.1972721,15.4958839 C57.0078772,16.3027187 57.4131737,17.535574 57.4131737,19.1944867 C57.4131737,21.2832086 56.7081463,22.7422759 55.2980705,23.5717322 L58.4763806,30.8218986 L55.1849634,30.8218986 L52.572189,24.3861035 L51.4750499,24.3861035 Z M154.254388,30.7737858 L150.499231,30.7737858 L145.38679,18.7957418 L145.23975,18.7957418 C145.428263,19.7081438 145.522518,20.6883957 145.522518,21.7365269 L145.522518,30.7737858 L142.672219,30.7737858 L142.672219,14.237525 L146.449996,14.237525 L151.517195,26.091151 L151.641613,26.091151 C151.498343,25.2993972 151.42671,24.3568473 151.42671,23.2634731 L151.42671,14.237525 L154.254388,14.237525 L154.254388,30.7737858 Z M63.9620758,20.8119185 L66.1676647,14.2856377 L69.3912176,14.2856377 L65.4664005,24.1938214 L65.4664005,30.8218986 L62.4351297,30.8218986 L62.4351297,24.3182392 L58.5216234,14.2856377 L61.7677977,14.2856377 L63.9620758,20.8119185 Z M162.171886,21.6007984 L167.227774,21.6007984 L167.227774,30.0838323 C165.795077,30.6946138 164.271916,31 162.658247,31 C160.735416,31 159.255613,30.2685813 158.218792,28.8057219 C157.181972,27.3428625 156.663569,25.2353209 156.663569,22.4830339 C156.663569,19.8287736 157.257376,17.7513936 158.445006,16.2508317 C159.632637,14.7502697 161.29341,14 163.427375,14 C164.746965,14 166.006211,14.339318 167.205153,15.0179641 L166.232432,17.5289421 C165.297408,16.9860252 164.422722,16.7145709 163.608346,16.7145709 C162.439567,16.7145709 161.513983,17.2367435 160.831567,18.2811045 C160.14915,19.3254654 159.807947,20.7487158 159.807947,22.5508982 C159.807947,24.4058642 160.054895,25.8272295 160.548799,26.8150366 C161.042702,27.8028437 161.760925,28.2967399 162.703489,28.2967399 C163.201163,28.2967399 163.70637,28.2326465 164.219125,28.1044578 L164.219125,24.3153693 L162.171886,24.3153693 L162.171886,21.6007984 Z M81.3692615,22.3954182 C81.3692615,25.1250836 80.813157,27.2118891 79.7009315,28.6558972 C78.5887059,30.0999053 76.9882562,30.8218986 74.8995343,30.8218986 L70.8502994,30.8218986 L70.8502994,14.2856377 L75.2727878,14.2856377 C77.1956184,14.2856377 78.6923876,14.9963204 79.7631404,16.4177069 C80.8338931,17.8390935 81.3692615,19.831644 81.3692615,22.3954182 Z M177.282997,26.2155689 C177.282997,27.7613739 176.892781,28.9452166 176.112338,29.7671324 C175.331895,30.5890482 174.206491,31 172.736091,31 C171.295853,31 170.070538,30.717235 169.06011,30.1516966 L169.06011,27.1091151 C170.296754,27.9159499 171.431584,28.3193613 172.464634,28.3193613 C173.052794,28.3193613 173.495792,28.1572427 173.793642,27.8330007 C174.091493,27.5087586 174.240416,27.0676453 174.240416,26.5096474 C174.240416,25.95919 174.063216,25.4558683 173.708812,24.9996673 C173.354408,24.5434663 172.770027,24.0363745 171.955652,23.4783766 C171.246844,22.9882433 170.70959,22.5188534 170.343875,22.0701929 C169.97816,21.6215325 169.695396,21.1182108 169.495572,20.5602129 C169.295748,20.002215 169.195838,19.3537407 169.195838,18.6147705 C169.195838,17.1971541 169.589824,16.0736347 170.377807,15.2441783 C171.165791,14.414722 172.223332,14 173.550462,14 C174.817268,14 176.035043,14.3543988 177.203822,15.0632069 L176.185858,17.5289421 C175.823913,17.3178078 175.445008,17.1292978 175.049132,16.9634065 C174.653255,16.7975152 174.229107,16.7145709 173.776676,16.7145709 C173.279003,16.7145709 172.896327,16.8785745 172.628639,17.2065868 C172.360951,17.5345991 172.227109,17.9813678 172.227109,18.5469062 C172.227109,19.1049041 172.387342,19.5912598 172.707814,20.005988 C173.028286,20.4207162 173.588161,20.8919912 174.387455,21.419827 C175.465748,22.1437162 176.217903,22.8826753 176.643942,23.6367265 C177.069981,24.3907778 177.282997,25.2503833 177.282997,26.2155689 Z M51.4750499,21.7393969 L52.2667997,21.7393969 C52.9906889,21.7393969 53.5109765,21.533921 53.827678,21.1229631 C54.1443795,20.7120052 54.3027279,20.0993477 54.3027279,19.2849724 C54.3027279,18.440435 54.134954,17.8390882 53.7994012,17.4809139 C53.4638484,17.1227395 52.945446,16.943655 52.2441783,16.943655 L51.4750499,16.943655 L51.4750499,21.7393969 Z M78.2135729,22.4859039 C78.2135729,18.7910529 77.195619,16.943655 75.1596806,16.943655 L73.926813,16.943655 L73.926813,28.1299491 L74.9221557,28.1299491 C76.045692,28.1299491 76.8751359,27.6605593 77.4105123,26.7217655 C77.9458887,25.7829717 78.2135729,24.371032 78.2135729,22.4859039 Z M91.6054558,30.8218986 L90.655356,26.6482459 L86.3459747,26.6482459 L85.3958749,30.8218986 L82.3193613,30.8218986 L86.413839,14.2177735 L90.5874917,14.2177735 L94.6932801,30.8218986 L91.6054558,30.8218986 Z M90.0785096,23.9223643 L89.1962741,20.0767222 C89.1434905,19.8429664 89.0247292,19.2567003 88.8399867,18.3179065 C88.6552441,17.3791128 88.5440233,16.7513745 88.5063207,16.434673 C88.408294,17.0831571 88.2838774,17.7976099 88.1330672,18.5780529 C87.982257,19.3584959 87.5901562,21.1399153 86.9567532,23.9223643 L90.0785096,23.9223643 Z M100.133733,20.8119185 L102.339321,14.2856377 L105.562874,14.2856377 L101.638057,24.1938214 L101.638057,30.8218986 L98.6067864,30.8218986 L98.6067864,24.3182392 L94.6932801,14.2856377 L97.9394544,14.2856377 L100.133733,20.8119185 Z" transform="translate(-17 -14)"/>
</svg>
