<svg xmlns="http://www.w3.org/2000/svg" width="213" height="78" viewBox="0 0 213 78">
  <path fill="#FFF" fill-rule="evenodd" d="M179.837463,76.6009171 C182.720747,76.6632743 185.496418,77.5034885 188.164551,79.121582 L185.747559,84.9760742 C184.888179,84.4747696 183.98853,84.027183 183.048584,83.6333008 C182.108638,83.2394186 181.101568,83.0424805 180.027344,83.0424805 C178.845697,83.0424805 177.937096,83.4318809 177.301514,84.2106934 C176.665931,84.9895058 176.348145,86.0502863 176.348145,87.3930664 C176.348145,88.7179428 176.728593,89.8727164 177.489502,90.8574219 C178.250411,91.8421273 179.579743,92.961094 181.477539,94.2143555 C184.037773,95.9331141 185.823644,97.6876538 186.835205,99.4780273 C187.846766,101.268401 188.352539,103.309396 188.352539,105.601074 C188.352539,109.27134 187.426035,112.082184 185.572998,114.033691 C183.719961,115.985199 181.047869,116.960938 177.556641,116.960938 C174.137027,116.960938 171.227714,116.289557 168.828613,114.946777 L168.828613,107.722656 C171.764826,109.638356 174.459298,110.596191 176.912109,110.596191 C178.308601,110.596191 179.360429,110.211267 180.067627,109.441406 C180.774824,108.671546 181.128418,107.624193 181.128418,106.299316 C181.128418,104.992344 180.707686,103.797287 179.866211,102.714111 C179.024735,101.630935 177.637217,100.426927 175.703613,99.1020508 C174.020662,97.938308 172.74504,96.8238172 171.876709,95.7585449 C171.008378,94.6932727 170.336998,93.4982163 169.862549,92.1733398 C169.3881,90.8484634 169.150879,89.3087653 169.150879,87.5541992 C169.150879,84.188297 170.086335,81.5206804 171.957275,79.5512695 C172.36813,79.1187911 172.809848,78.7337991 173.282431,78.3962931 C172.931962,78.4146498 172.575286,78.4238281 172.212402,78.4238281 L163.301168,78.4238281 C163.677995,78.6068517 164.052378,78.803629 164.424316,79.0141602 L162.114746,84.9760742 C159.894683,83.6870053 157.817881,83.0424805 155.884277,83.0424805 C153.109198,83.0424805 150.911548,84.2822955 149.29126,86.7619629 C147.670972,89.2416302 146.86084,92.6209096 146.86084,96.8999023 C146.86084,101.304221 147.447178,104.679025 148.619873,107.024414 C149.792568,109.369803 151.497873,110.54248 153.73584,110.54248 C154.917486,110.54248 156.117019,110.390301 157.334473,110.085938 L157.334473,101.089355 L152.473633,101.089355 L152.473633,94.644043 L164.478027,94.644043 L164.478027,114.785645 C161.076318,116.235847 157.459817,116.960938 153.628418,116.960938 C149.062965,116.960938 145.54941,115.224301 143.087646,111.750977 C140.625883,108.277652 139.39502,103.273633 139.39502,96.7387695 C139.39502,90.4366547 140.804918,85.5042496 143.624756,81.9414062 C144.79601,80.4615357 146.16108,79.289011 147.719974,78.4238281 L142.617676,78.4238281 L142.617676,62.9819336 L133.325684,39.1611328 L141.033203,39.1611328 L146.243164,54.6567383 L151.47998,39.1611328 L159.133789,39.1611328 L149.814941,62.6865234 L149.814941,77.4864378 C151.507877,76.89359 153.387758,76.597168 155.45459,76.597168 C157.92482,76.597168 160.30599,77.0979641 162.598145,78.0995683 L162.598145,39.1611328 L173.098633,39.1611328 C177.664085,39.1611328 181.217923,40.8485346 183.760254,44.2233887 C186.302584,47.5982428 187.57373,52.3292339 187.57373,58.4165039 C187.57373,64.8976561 186.25335,69.8524405 183.612549,73.2810059 C182.543987,74.6683255 181.285627,75.7749614 179.837463,76.6009171 Z M115.684309,78.4238281 L127.175781,105.305664 L127.471191,105.305664 C127.13102,103.425772 126.960938,101.187839 126.960938,98.5917969 L126.960938,78.4238281 L125.40332,78.4238281 L119.199707,63.1430664 L116.594727,63.1430664 L116.594727,78.4238281 L115.684309,78.4238281 Z M109.290039,77.1611328 L109.290039,39.1611328 L118.850586,39.1611328 C122.89683,39.1611328 125.882233,40.1189683 127.806885,42.034668 C129.731536,43.9503677 130.693848,46.8775845 130.693848,50.8164062 C130.693848,55.7757409 129.019874,59.2400618 125.671875,61.2094727 L132.664724,77.1611328 L133.674805,77.1611328 L133.674805,116.423828 L124.758789,116.423828 L112.620117,87.9838867 L112.270996,87.9838867 C112.718589,90.1502387 112.942383,92.4776894 112.942383,94.9663086 L112.942383,116.423828 L106.174805,116.423828 L106.174805,77.1611328 L109.290039,77.1611328 Z M97.8764648,78.4238281 L103.569824,78.4238281 L103.569824,72.0322266 L93.1767578,72.0322266 L93.1767578,61.1557617 L102.817871,61.1557617 L102.817871,54.8178711 L93.1767578,54.8178711 L93.1767578,45.472168 L103.569824,45.472168 L103.569824,39.1611328 L85.8720703,39.1611328 L85.8720703,78.4238281 L91.0014648,78.4238281 L91.0014648,116.423828 L97.8764648,116.423828 L97.8764648,78.4238281 Z M65.8110352,78.4238281 L73.1694336,78.4238281 L82.4077148,39.1611328 L75.0493164,39.1611328 L69.9736328,63.1430664 C69.4007133,65.7570118 68.9262714,68.6842286 68.550293,71.9248047 C68.1026996,68.1113091 67.6461612,65.1840922 67.1806641,63.1430664 L62.0512695,39.1611328 L54.6928711,39.1611328 L63.582064,77.1611328 L58.5063477,77.1611328 L58.5063477,116.423828 L65.8110352,116.423828 L65.8110352,99.2094727 L75.4521484,99.2094727 L75.4521484,116.423828 L82.7568359,116.423828 L82.7568359,77.1611328 L75.4521484,77.1611328 L75.4521484,92.7641602 L65.8110352,92.7641602 L65.8110352,78.4238281 Z M34.7392578,77.1611328 L34.7392578,39.1611328 L52.4370117,39.1611328 L52.4370117,45.472168 L42.0439453,45.472168 L42.0439453,54.8178711 L51.6850586,54.8178711 L51.6850586,61.1557617 L42.0439453,61.1557617 L42.0439453,72.0322266 L52.4370117,72.0322266 L52.4370117,77.1611328 L54.3168945,77.1611328 L54.3168945,83.5795898 L46.7973633,83.5795898 L46.7973633,116.423828 L39.5195312,116.423828 L39.5195312,83.5795898 L32,83.5795898 L32,77.1611328 L34.7392578,77.1611328 Z M116.594727,56.8588867 L118.474609,56.8588867 C120.193368,56.8588867 121.428707,56.3710172 122.180664,55.3952637 C122.932621,54.4195101 123.308594,52.9648534 123.308594,51.03125 C123.308594,49.0260316 122.910242,47.5982302 122.113525,46.7478027 C121.316809,45.8973753 120.085946,45.472168 118.420898,45.472168 L116.594727,45.472168 L116.594727,56.8588867 Z M180.081055,58.6313477 C180.081055,49.8585173 177.664087,45.472168 172.830078,45.472168 L169.902832,45.472168 L169.902832,72.0322266 L172.266113,72.0322266 C174.93377,72.0322266 176.903151,70.9177358 178.174316,68.6887207 C179.445482,66.4597057 180.081055,63.1072815 180.081055,58.6313477 Z M211.87793,78.4238281 L209.62207,68.5141602 L199.390137,68.5141602 L197.134277,78.4238281 L189.82959,78.4238281 L199.55127,39 L209.460938,39 L219.209473,78.4238281 L211.87793,78.4238281 Z M208.252441,62.0419922 L206.157715,52.9111328 C206.032389,52.356117 205.750409,50.9641225 205.311768,48.7351074 C204.873126,46.5060924 204.60905,45.0156288 204.519531,44.2636719 C204.286783,45.8033931 203.991375,47.4997466 203.633301,49.3527832 C203.275226,51.2058198 202.344246,55.4355138 200.840332,62.0419922 L208.252441,62.0419922 Z M232.126953,54.6567383 L237.36377,39.1611328 L245.017578,39.1611328 L235.69873,62.6865234 L235.69873,78.4238281 L228.501465,78.4238281 L228.501465,62.9819336 L219.209473,39.1611328 L226.916992,39.1611328 L232.126953,54.6567383 Z" transform="translate(-32 -39)"/>
</svg>
